# xmcd
#
# Track frame offsets:
# 150
# 14813
# 25546
# 39071
# 49725
# 60248
# 71218
# 82983
# 94524
# 105743
# 117677
# 129171
# 144681
# 154430
#
# Disc length: 2224 seconds
#
#
# Revision: 0
# Processed by: cddbd v1.5.2PL0 Copyright (c) Steve Scherf et al.
# Submitted via: FreeRIP 2.951 
#
DISCID=b608ae0e
DTITLE=Mario Millan Medina - Memorias de chamame
DYEAR=2006
DGENRE=Folklore
TTITLE0=Mi ponchillo colorado
TTITLE1=El Poriaju
TTITLE2=El rancho e la cambicha
TTITLE3=El conseguidor
TTITLE4=La familia e taita
TTITLE5=La dormilona
TTITLE6=Camino del arenal
TTITLE7=Los contrabandistas
TTITLE8=El pi bolsa
TTITLE9=Bailecito social
TTITLE10=El paguero
TTITLE11=Padre de mi patria
TTITLE12=Gente toro
TTITLE13=Al pie del cañon
EXTD=
EXTT0=
EXTT1=
EXTT2=
EXTT3=
EXTT4=
EXTT5=
EXTT6=
EXTT7=
EXTT8=
EXTT9=
EXTT10=
EXTT11=
EXTT12=
EXTT13=
PLAYORDER=
